<svg width="54" height="50" viewBox="0 0 54 50" fill="none" xmlns="http://www.w3.org/2000/svg">
<g clip-path="url(#clip0_1_16)">
<path d="M50.0921 32.2917C49.4737 32.0833 48.6491 31.875 48.0307 31.6667C47.2061 31.6667 46.3816 31.4583 45.7631 31.25C45.3509 31.25 44.7324 31.25 44.3202 31.25C43.7017 32.7083 43.2895 34.1667 42.671 35.4167C41.4342 37.9167 40.1973 40 38.7544 41.6667C37.5175 43.3333 36.2807 44.7917 35.0438 45.8333C35.0438 45.8333 33.1886 47.5 31.9517 47.7083C31.1272 47.7083 30.3026 47.9167 29.478 47.7083C28.8596 47.7083 28.0351 47.2917 27.4166 46.6667C26.7982 46.25 26.1798 45.4167 25.7675 44.375C25.3552 43.3333 25.1491 42.2917 25.1491 41.25C25.1491 40.2083 25.1491 39.375 24.943 38.5417C24.943 37.9167 24.943 37.2917 24.943 36.875C24.943 36.4583 24.7368 36.4583 24.5307 36.6667C24.1184 37.0833 23.9123 37.2917 23.7061 37.7083C23.2938 38.125 23.0877 38.75 22.8816 39.375C22.6754 40 22.4693 40.625 22.057 41.25L20.8202 45C19.9956 47.9167 17.9342 44.5833 17.9342 44.5833C17.1096 43.3333 17.728 41.4583 17.728 41.4583V40.2083C18.1403 38.75 18.3465 37.0833 18.5526 35.2083C18.5526 33.3333 18.7588 31.6667 18.7588 30.2083C18.7588 28.75 18.7588 27.7083 18.1403 27.5C17.9342 27.5 17.3158 28.125 16.4912 29.7917C15.6666 31.875 14.8421 33.75 14.0175 35.8333C13.193 38.125 12.1623 40.625 11.3377 43.125C10.5131 45.2083 9.68858 47.5 8.86401 49.5833V50H37.7237C46.1754 50 53.1842 42.9167 53.1842 34.375C53.1842 25.8333 53.1842 33.5417 53.1842 33.3333C52.978 33.3333 52.7719 33.3333 52.5658 33.125C51.9473 33.125 51.3289 32.7083 50.7105 32.5" fill="white"/>
<path d="M15.4605 21.0417C17.7281 20 21.0263 22.9167 21.6447 25.4167C22.057 27.2917 21.8509 30.2083 21.4386 33.75C21.8509 32.9167 22.4693 32.0833 23.0877 31.4583C23.7061 30.8333 24.5307 30.4167 25.1491 30C25.9737 29.5833 27.0044 29.5833 28.2412 29.7917C29.2719 30 30.0965 30.625 30.3026 31.875C30.7149 33.125 30.7149 34.375 30.9211 36.0417C30.9211 37.5 30.9211 39.1667 30.9211 40.4167C30.9211 41.875 31.1272 42.9167 31.7456 43.3333C31.9518 43.3333 32.1579 43.3333 32.1579 43.3333C33.807 42.5 35.0439 41.25 36.4868 39.375C37.7237 37.7083 38.7544 35.8333 39.7851 33.9583C40.1974 33.125 40.6096 32.2917 40.8158 31.4583C39.9912 31.4583 39.3728 31.6667 38.7544 31.875C37.7237 32.0833 36.8991 32.5 36.4868 32.9167C36.4868 32.9167 36.2807 32.9167 36.0746 33.125C36.0746 33.125 36.0746 33.125 35.8684 33.125C35.8684 33.125 35.8684 33.125 35.8684 32.9167C35.8684 31.875 36.4868 31.25 36.4868 31.25C36.8991 30.625 37.5175 30.4167 37.5175 30.4167C37.7237 30.4167 37.9298 30.2083 38.3421 30C38.7544 30 38.9605 29.7917 39.579 29.5833C39.9912 29.5833 40.6097 29.375 41.2281 29.1667C41.4342 29.1667 41.8465 29.1667 42.0526 29.1667C42.0526 29.1667 42.0526 28.9583 42.0526 28.75C42.4649 27.2917 44.114 23.125 44.114 22.9167C44.114 22.5 44.5263 22.5 44.5263 22.9167C44.5263 22.9167 45.7632 26.0417 45.1447 27.2917C45.1447 27.9167 44.7325 28.3333 44.7325 28.9583C45.7632 28.9583 49.2675 29.375 52.3596 31.25C51.5351 26.4583 48.443 22.2917 43.9079 20C44.3202 18.5417 44.5263 17.0833 44.5263 15.4167C44.5263 6.875 37.5175 -0.208336 29.0658 -0.208336H0V49.375C4.94737 33.9583 12.9868 23.125 12.9868 23.125C13.6053 22.0833 14.8421 21.25 15.4605 21.0417Z" fill="white"/>
</g>
<defs>
<clipPath id="clip0_1_16">
<rect width="54" height="50" fill="white"/>
</clipPath>
</defs>
</svg>
